PathFileType	4	(X/Y/Z)	c:/Users/goper/Files/vsCode/490R/osim_files/C10/C10_SSWS_06.trc
DataRate	CameraRate	NumFrames	NumMarkers	Units                	OrigDataRate	OrigDataStartFrame	OrigNumFrames
250.00	250.00	4	36	mm	250.0	1279	2557
                Frame#	Time	LPSIS			LASIS			LTH1			LTH2			LTH3			LTH4			LLFE			LMFE			LSH1			LSH2			LSH3			LSH4			LLMAL			LMMAL			LCAL			LMTP5			LTOE			LMTP1			RPSIS			RASIS			RTH1			RTH2			RTH3			RTH4			RLFE			RMFE			RSH1			RSH2			RSH3			RSH4			RLMAL			RMMAL			RCAL			RMTP1			RTOE			RMTP5		
		X1	Y1	Z1	X2	Y2	Z2	X3	Y3	Z3	X4	Y4	Z4	X5	Y5	Z5	X6	Y6	Z6	X7	Y7	Z7	X8	Y8	Z8	X9	Y9	Z9	X10	Y10	Z10	X11	Y11	Z11	X12	Y12	Z12	X13	Y13	Z13	X14	Y14	Z14	X15	Y15	Z15	X16	Y16	Z16	X17	Y17	Z17	X18	Y18	Z18	X19	Y19	Z19	X20	Y20	Z20	X21	Y21	Z21	X22	Y22	Z22	X23	Y23	Z23	X24	Y24	Z24	X25	Y25	Z25	X26	Y26	Z26	X27	Y27	Z27	X28	Y28	Z28	X29	Y29	Z29	X30	Y30	Z30	X31	Y31	Z31	X32	Y32	Z32	X33	Y33	Z33	X34	Y34	Z34	X35	Y35	Z35	X36	Y36	Z36

1279	5.11200	1809.87402	996.39917	284.08884	0.00000	0.00000	0.00000	1648.98059	748.03168	454.89697	1628.95557	708.17310	454.01413	0.00000	0.00000	0.00000	0.00000	0.00000	0.00000	1503.03760	498.03275	385.66748	1495.97388	491.02026	263.90335	1569.60095	428.00250	400.67743	0.00000	0.00000	0.00000	0.00000	0.00000	0.00000	1502.08875	400.93567	390.39697	0.00000	0.00000	0.00000	0.00000	0.00000	0.00000	1368.89856	41.28496	321.90057	1217.26636	127.71301	376.92834	1189.93640	174.11520	313.01816	0.00000	0.00000	0.00000	1804.34363	1007.66003	201.54881	1641.06421	966.29871	84.85206	0.00000	0.00000	0.00000	0.00000	0.00000	0.00000	0.00000	0.00000	0.00000	1735.77417	689.14893	38.71125	0.00000	0.00000	0.00000	1957.33459	442.41959	113.76445	1775.07202	954.45441	68.10299	0.00000	0.00000	0.00000	0.00000	0.00000	0.00000	0.00000	0.00000	0.00000	1987.68066	108.94984	171.74091	1966.98340	116.37357	251.75549	0.00000	0.00000	0.00000	0.00000	0.00000	0.00000	1882.39832	38.98777	136.96606	0.00000	0.00000	0.00000
1280	5.11600	1804.50708	995.59814	284.79520	1630.96790	976.75464	408.61456	1642.46948	747.63397	455.37820	1622.36182	707.95935	454.46948	0.00000	0.00000	0.00000	0.00000	0.00000	0.00000	1491.86462	498.69489	384.48721	1489.51477	490.86276	263.79517	1563.10425	426.79019	400.06647	0.00000	0.00000	0.00000	0.00000	0.00000	0.00000	1493.60291	396.23273	394.37701	0.00000	0.00000	0.00000	0.00000	0.00000	0.00000	1364.85193	40.16379	320.81656	0.00000	0.00000	0.00000	0.00000	0.00000	0.00000	1185.30505	149.38657	279.61771	1798.84143	1006.90466	202.33054	0.00000	0.00000	0.00000	0.00000	0.00000	0.00000	0.00000	0.00000	0.00000	0.00000	0.00000	0.00000	1731.34033	688.67877	39.00522	0.00000	0.00000	0.00000	1953.41516	442.20825	113.85583	1768.13623	953.42236	68.74500	0.00000	0.00000	0.00000	0.00000	0.00000	0.00000	0.00000	0.00000	0.00000	1986.85876	109.78444	171.58337	1966.16248	117.14758	251.64116	0.00000	0.00000	0.00000	0.00000	0.00000	0.00000	1882.27930	38.91085	136.92517	0.00000	0.00000	0.00000
1281	5.12000	1799.15601	994.81427	285.45819	1626.08569	976.12732	409.05142	1635.79541	747.23688	455.82806	1615.55359	707.77386	454.90244	0.00000	0.00000	0.00000	0.00000	0.00000	0.00000	1485.56958	498.30878	384.11978	1482.92139	490.75745	263.71512	1556.85193	425.71912	399.43515	0.00000	0.00000	0.00000	0.00000	0.00000	0.00000	1494.48535	400.86514	393.16635	0.00000	0.00000	0.00000	0.00000	0.00000	0.00000	1361.35181	38.81474	319.69873	0.00000	0.00000	0.00000	0.00000	0.00000	0.00000	1181.11584	147.25983	279.30267	1793.35229	1006.13379	203.14160	0.00000	0.00000	0.00000	0.00000	0.00000	0.00000	0.00000	0.00000	0.00000	0.00000	0.00000	0.00000	1726.73010	688.10828	39.38796	0.00000	0.00000	0.00000	1949.44324	442.02844	113.94657	0.00000	0.00000	0.00000	0.00000	0.00000	0.00000	1761.14526	952.39709	69.43224	0.00000	0.00000	0.00000	1986.14526	110.78947	171.42871	1965.49219	118.12247	251.49132	0.00000	0.00000	0.00000	0.00000	0.00000	0.00000	1882.21191	38.86543	136.88240	0.00000	0.00000	0.00000
1282	5.12400	1793.62402	993.93884	286.24570	1621.19666	975.50696	409.56390	1629.08447	746.88751	456.19330	1608.72559	707.67139	455.40125	0.00000	0.00000	0.00000	0.00000	0.00000	0.00000	1484.09265	496.98282	384.62161	1476.17151	490.71207	263.65411	1550.68469	424.62918	398.81580	0.00000	0.00000	0.00000	0.00000	0.00000	0.00000	1488.73950	400.22766	392.69165	1329.86633	118.11607	360.50647	0.00000	0.00000	0.00000	1358.42236	37.26770	318.57272	1206.17883	121.06503	375.26971	0.00000	0.00000	0.00000	1177.31885	144.85602	279.16733	1787.76758	1005.33258	203.99327	0.00000	0.00000	0.00000	0.00000	0.00000	0.00000	0.00000	0.00000	0.00000	0.00000	0.00000	0.00000	1722.05432	687.61774	39.73425	0.00000	0.00000	0.00000	1945.36743	441.87708	113.97475	1754.28186	951.45050	70.21290	0.00000	0.00000	0.00000	0.00000	0.00000	0.00000	0.00000	0.00000	0.00000	1985.54199	112.01667	171.19891	1964.65796	119.02344	251.28458	0.00000	0.00000	0.00000	0.00000	0.00000	0.00000	1882.16174	38.85054	136.84879	0.00000	0.00000	0.00000
